<?xml version="1.0" encoding="UTF-8"?>
<svg id="Layer_2" data-name="Layer 2" xmlns="http://www.w3.org/2000/svg" viewBox="0 0 928.73 76.44">
  <defs>
    <style>
      .cls-1, .cls-2 {
        font-family: ArtifaktElement-Bold, 'Artifakt Element';
      }

      .cls-3 {
        font-family: ArtifaktElement-BoldItalic, 'Artifakt Element';
        font-style: italic;
      }

      .cls-2 {
        letter-spacing: -.02em;
      }

      .cls-4 {
        font-size: 60px;
        font-weight: 700;
      }
    </style>
  </defs>
  <g id="Layer_1-2" data-name="Layer 1">
    <g>
      <polygon points="928.73 8.94 913.92 8.94 896.19 28.74 896.19 8.94 883.77 8.94 883.83 57.68 896.19 57.68 896.19 39.15 913.01 57.68 928.73 57.68 906.07 33.61 928.73 8.94"/>
      <path d="M863.73,28.98l-11.33-1.28c-6.64-.73-8.28-2.38-8.28-4.63,0-2.5,3.41-4.75,10.05-4.75s9.75,2.38,10.36,5.97h12.18c-.62-10.3-9.26-16.69-21.87-16.69-14.99,0-22.54,5.97-22.54,16.51,0,8.59,5,12.61,15.35,13.71l11.51,1.22c4.39.49,6.4,2.2,6.4,4.39,0,2.5-2.92,4.75-9.99,4.75-8.16,0-11.45-2.07-12-6.22h-11.94c.55,11.21,7.86,16.94,23.52,16.94,14.32,0,22.3-6.27,22.3-15.72,0-8.23-4.75-13.16-13.71-14.19Z"/>
      <polygon points="786.9 57.68 826.13 57.68 826.13 47.14 799.33 47.14 799.33 38.3 820.89 38.3 820.89 27.7 799.33 27.7 799.33 19.48 826.13 19.48 826.13 8.94 786.9 8.94 786.9 57.68"/>
      <path d="M757.66,8.94h-22.78v48.74h22.78c17.49,0,22.3-6.52,22.3-24.74,0-17.12-4.63-24-22.3-24ZM757.16,47.14h-9.88v-27.66h9.88c7.8,0,10.11,2.13,10.11,13.46.01,10.36-2.61,14.2-10.11,14.2Z"/>
      <path d="M701.12,7.6c-17.73,0-26.93,10.9-26.93,25.59s9.2,25.71,26.93,25.71,26.99-10.96,26.99-25.71-9.2-25.59-26.99-25.59ZM701.12,47.93c-9.2,0-14.26-5.6-14.26-14.74s5.06-14.62,14.26-14.62,14.26,5.67,14.26,14.62-5,14.74-14.26,14.74Z"/>
      <polygon points="628.38 19.48 644.1 19.48 644.1 57.68 656.53 57.68 656.53 19.48 672.19 19.48 672.19 8.94 628.38 8.94 628.38 19.48"/>
      <path d="M610.29,39.03c0,6.34-3.9,8.9-10.54,8.9s-10.66-2.68-10.66-8.9V8.94h-12.43v31.5c0,14.07,12.55,18.46,23.09,18.46s22.97-4.38,22.97-18.46V8.94h-12.43v30.09Z"/>
      <path d="M540.29,8.94l-18.7,48.74h12.85l3.26-9.14h20.88l3.21,9.14h13.28l-18.93-48.74h-15.85ZM541.4,38.18l6.83-19.1,6.71,19.11h-13.54Z"/>
      <path d="M429.11,57.68l43.64-27.15h22.64c.73,0,1.32.59,1.32,1.32h0c.04.46-.21.9-.62,1.11l-21.44,12.85c-1.39.83-1.88,2.51-1.88,3.76l-.02,8.1h27.24V10.61c0-.92-.74-1.67-1.67-1.68-.03,0-.05,0-.08,0h-25.99l-43.54,27.03v21.71h.38Z"/>
    </g>
    <text class="cls-4" transform="translate(87.19 55.44)"><tspan class="cls-2" x="0" y="0">R</tspan><tspan class="cls-1" x="38.34" y="0">obotics </tspan><tspan class="cls-3" x="264.3" y="0">@</tspan></text>
  </g>
</svg>